<svg width="32" height="26" viewBox="0 0 32 26" fill="none" xmlns="http://www.w3.org/2000/svg">
<path d="M5.72382 15.3804C6.03896 15.3804 6.29431 15.125 6.29431 14.8099C6.29431 14.4947 6.03896 14.2394 5.72382 14.2394H5.36602C5.05088 14.2394 4.79553 14.4947 4.79553 14.8099C4.79553 15.125 5.05088 15.3804 5.36602 15.3804H5.72382Z" fill="white"/>
<path d="M1.68469 15.7228C1.94506 15.5454 2.01237 15.1905 1.83499 14.9301C1.48874 14.422 1.26701 13.8477 1.18121 13.2449H9.90753C9.62974 15.1882 7.95426 16.6869 5.93534 16.6869H5.15355C4.51575 16.6869 3.90487 16.5407 3.33788 16.2523C3.05712 16.1094 2.71354 16.2213 2.57077 16.5021C2.42792 16.7829 2.53981 17.1264 2.82056 17.2692C3.54934 17.64 4.33425 17.8279 5.15355 17.8279H5.93534C8.77698 17.8279 11.0889 15.516 11.0889 12.6744C11.0889 12.3592 10.8335 12.1039 10.5184 12.1039H9.37211L7.23917 7.00677H13.3979V22.0065H11.9445C10.9556 22.0065 10.151 22.8109 10.151 23.7998V25.3357C10.151 25.6509 10.4064 25.9062 10.7215 25.9062H20.4783C20.7935 25.9062 21.0488 25.6509 21.0488 25.3357V23.7998C21.0488 22.8109 20.2444 22.0065 19.2555 22.0065H17.802V7.00677H23.9608L21.8279 12.1039H20.6815C20.3664 12.1039 20.111 12.3592 20.111 12.6744C20.111 15.516 22.4229 17.8279 25.2646 17.8279H26.0464C28.8881 17.8279 31.2 15.516 31.2 12.6744C31.2 12.3592 30.9446 12.1039 30.6295 12.1039H29.4832L27.3503 7.00677H28.5431C28.8583 7.00677 29.1136 6.75142 29.1136 6.43628V5.72431C29.1136 4.98694 28.723 4.3394 28.138 3.9768L28.4805 3.63435C28.7032 3.41156 28.7032 3.05033 28.4804 2.82761C28.2577 2.60489 27.8964 2.60481 27.6736 2.82768L26.8317 3.66965H24.3605C24.0453 3.66965 23.79 3.925 23.79 4.24013C23.79 4.55527 24.0453 4.81062 24.3605 4.81062H27.059C27.5628 4.81062 27.9727 5.22053 27.9727 5.72431V5.86579H3.22736V5.72431C3.22736 5.22053 3.63727 4.81062 4.14113 4.81062H22.0794C22.3946 4.81062 22.6499 4.55527 22.6499 4.24013C22.6499 3.925 22.3946 3.66965 22.0794 3.66965H18.372V3.63922C18.3719 2.1107 17.1284 0.867188 15.5999 0.867188C14.0715 0.867188 12.828 2.1107 12.828 3.63915V3.66957H4.36833L3.52637 2.82761C3.3035 2.60481 2.94227 2.60474 2.71962 2.82753C2.49675 3.05033 2.49675 3.41156 2.71955 3.63428L3.06199 3.97672C2.47705 4.33925 2.08638 4.98686 2.08638 5.72424V6.4362C2.08638 6.75134 2.34173 7.00669 2.65687 7.00669H3.84972L1.71679 12.1038H0.570487C0.25535 12.1038 0 12.3592 0 12.6743C0 13.7137 0.308519 14.7159 0.892089 15.5725C1.06947 15.833 1.42447 15.9004 1.68469 15.7228ZM13.9689 3.63915C13.9689 2.73983 14.7006 2.00816 15.5999 2.00816C16.4992 2.00816 17.2309 2.73983 17.2309 3.63915V3.66957H13.9689V3.63915ZM19.9079 23.7998V24.7653H11.292V23.7998C11.292 23.4401 11.5847 23.1474 11.9445 23.1474H19.2554C19.6152 23.1474 19.9079 23.4401 19.9079 23.7998ZM26.0464 16.6869H25.2645C23.2456 16.6869 21.5702 15.1882 21.2923 13.2449H30.0186C29.7407 15.1881 28.0653 16.6869 26.0464 16.6869ZM26.1133 7.00677L28.2462 12.1039H23.0647L25.1976 7.00677H26.1133ZM16.661 7.00677V22.0065H14.539V7.00677H16.661ZM5.08661 7.00677H6.00228L8.13522 12.1039H2.95368L5.08661 7.00677Z" fill="white"/>
<path d="M25.8345 14.2394H25.4768C25.1616 14.2394 24.9063 14.4947 24.9063 14.8099C24.9063 15.125 25.1616 15.3804 25.4768 15.3804H25.8345C26.1496 15.3804 26.405 15.125 26.405 14.8099C26.405 14.4947 26.1496 14.2394 25.8345 14.2394Z" fill="white"/>
</svg>
